<?xml version="1.0" encoding="UTF-8" standalone="no"?>
<svg
   xmlns:dc="http://purl.org/dc/elements/1.1/"
   xmlns:cc="http://creativecommons.org/ns#"
   xmlns:rdf="http://www.w3.org/1999/02/22-rdf-syntax-ns#"
   xmlns:svg="http://www.w3.org/2000/svg"
   xmlns="http://www.w3.org/2000/svg"
   xmlns:sodipodi="http://sodipodi.sourceforge.net/DTD/sodipodi-0.dtd"
   xmlns:inkscape="http://www.inkscape.org/namespaces/inkscape"
   version="1.1"
   id="svg2"
   xml:space="preserve"
   width="413.33334"
   height="400"
   viewBox="0 0 413.33334 400"
   sodipodi:docname="pigeon-logo.ai"><metadata
     id="metadata8"><rdf:RDF><cc:Work
         rdf:about=""><dc:format>image/svg+xml</dc:format><dc:type
           rdf:resource="http://purl.org/dc/dcmitype/StillImage" /></cc:Work></rdf:RDF></metadata><defs
     id="defs6"><clipPath
       clipPathUnits="userSpaceOnUse"
       id="clipPath18"><path
         d="M 0,300 H 310 V 0 H 0 Z"
         id="path16" /></clipPath></defs><sodipodi:namedview
     pagecolor="#ffffff"
     bordercolor="#666666"
     borderopacity="1"
     objecttolerance="10"
     gridtolerance="10"
     guidetolerance="10"
     inkscape:pageopacity="0"
     inkscape:pageshadow="2"
     inkscape:window-width="640"
     inkscape:window-height="480"
     id="namedview4" /><g
     id="g10"
     inkscape:groupmode="layer"
     inkscape:label="pigeon-logo"
     transform="matrix(1.3333333,0,0,-1.3333333,0,400)"><g
       id="g12"><g
         id="g14"
         clip-path="url(#clipPath18)"><g
           id="g20"
           transform="translate(155.3864,3.1779)"><path
             d="m 0,0 v 0 c -81.088,0 -146.822,65.734 -146.822,146.822 v 0 c 0,81.088 65.734,146.822 146.822,146.822 v 0 c 81.088,0 146.822,-65.734 146.822,-146.822 v 0 C 146.822,65.734 81.088,0 0,0"
             style="fill:#3f33b5;fill-opacity:1;fill-rule:nonzero;stroke:none"
             id="path22" /></g><g
           id="g24"
           transform="translate(222.4846,64.1531)"><path
             d="m 0,0 h -134.197 c -6.767,0 -12.253,5.486 -12.253,12.254 v 75.969 c 0,6.768 5.486,12.254 12.253,12.254 H 0 c 6.767,0 12.254,-5.486 12.254,-12.254 V 12.254 C 12.254,5.486 6.767,0 0,0"
             style="fill:#ffffff;fill-opacity:1;fill-rule:nonzero;stroke:none"
             id="path26" /></g><g
           id="g28"
           transform="translate(155,105.0084)"><path
             d="M 0,0 -70.326,38.34 0,21.496 Z"
             style="fill:#3f33b5;fill-opacity:1;fill-rule:nonzero;stroke:none"
             id="path30" /></g><g
           id="g32"
           transform="translate(155,105.0084)"><path
             d="M 0,0 70.326,38.34 0,21.496 Z"
             style="fill:#3f33b5;fill-opacity:1;fill-rule:nonzero;stroke:none"
             id="path34" /></g><g
           id="g36"
           transform="translate(139.3896,232.2528)"><path
             d="m 0,0 c 10.83,6.728 26.201,5.657 35.352,-3.505 4.665,2.344 9.33,4.993 14.526,5.973 2.084,0.113 2.366,-2.231 2.174,-3.786 -0.991,-8.824 -6.062,-16.961 -5.769,-25.92 3.425,-9.004 6.874,-17.997 10.187,-27.046 1.826,-6.018 3.775,-18.447 3.775,-18.447 l -88.497,3.628 c 0,0 5.218,36.591 13.974,52.842 C -11.123,-9.68 -6.266,-3.82 0,0"
             style="fill:#ffffff;fill-opacity:1;fill-rule:nonzero;stroke:none"
             id="path38" /></g><g
           id="g40"
           transform="translate(122.37,155.7054)"><path
             d="m 0,0 c 0,0 -12.993,13.39 -21.041,17.97 -14.144,6.84 -29.949,10.61 -45.705,9.59 -5.42,-0.343 -16.204,-1.324 -24.06,-4.834 -8.842,-3.95 -14.525,-10.535 -15.208,-12.076 4.784,1.39 9.809,1.72 14.744,1.06 C -74.603,9.45 -58.266,1.722 -45.863,-9.868 -45.543,-10.196 0,0 0,0"
             style="fill:#ffffff;fill-opacity:1;fill-rule:nonzero;stroke:none"
             id="path42" /></g><g
           id="g44"
           transform="translate(188.426,155.7054)"><path
             d="m 0,0 c 0,0 12.993,13.39 21.041,17.97 14.144,6.84 29.949,10.61 45.705,9.59 5.42,-0.343 16.204,-1.324 24.06,-4.834 8.842,-3.95 14.525,-10.535 15.208,-12.076 -4.784,1.39 -9.809,1.72 -14.744,1.06 C 74.603,9.45 58.266,1.722 45.863,-9.868 45.543,-10.196 0,0 0,0"
             style="fill:#ffffff;fill-opacity:1;fill-rule:nonzero;stroke:none"
             id="path46" /></g></g></g></g></svg>
